<svg xmlns="http://www.w3.org/2000/svg" fill="none" viewBox="0 0 24 24"><path fill="CurrentColor" fill-rule="evenodd" d="M11.106 2.552 12 .764l.894 1.788.007.014.03.056a16.52 16.52 0 0 0 .644 1.085 18.679 18.679 0 0 0 2.03 2.609C17.395 8.226 19.898 10 23 10v2c-3.9 0-6.895-2.226-8.854-4.316A19.815 19.815 0 0 1 13 6.345V24h-2V6.345c-.338.432-.72.885-1.145 1.339C7.895 9.774 4.9 12 1 12v-2c3.1 0 5.604-1.774 7.395-3.684a18.677 18.677 0 0 0 2.548-3.463c.057-.101.1-.18.127-.23l.029-.057.007-.014Z" clip-rule="evenodd"/></svg>