<svg xmlns="http://www.w3.org/2000/svg" width="117" height="26" fill="none"><path fill="CurrentColor" d="M82.289 1.416H78.53v23.895h3.758V1.416ZM53.162 25.35c6.733 0 12.21-5.54 12.21-12.351C65.373 6.19 59.895.65 53.163.65 46.429.65 40.953 6.19 40.953 13c0 6.811 5.476 12.351 12.209 12.351Zm0-21.083c4.72 0 8.418 3.832 8.418 8.727 0 4.896-3.699 8.728-8.418 8.728-4.72 0-8.42-3.832-8.42-8.728s3.7-8.727 8.42-8.727ZM106.115.956l-.001.002a.203.203 0 0 0-.379.01h-.002L95.25 24.984h3.72l6.956-15.933 6.962 15.933h3.717L106.115.956ZM23.066.962a.285.285 0 0 0-.253-.18.288.288 0 0 0-.266.184l-.002-.002-4.59 12.389-1.072 2.886L11.223.961a.283.283 0 0 0-.253-.182.282.282 0 0 0-.262.18L.968 24.985h3.917l3.032-7.312 2.966-7.79 5.789 15.038c.032.08.11.137.203.14a.225.225 0 0 0 .212-.143L22.89 9.9l6.006 15.08h3.917L23.066.962Z"/></svg>