<svg xmlns="http://www.w3.org/2000/svg" width="49" height="48" fill="none"><path fill="CurrentColor" fill-rule="evenodd" d="M7.998 7.03A23.843 23.843 0 0 0 .968 24c0 6.41 2.497 12.437 7.03 16.97A23.842 23.842 0 0 0 24.968 48c13.234 0 24-10.766 24-24 0-6.41-2.496-12.438-7.029-16.97A23.842 23.842 0 0 0 24.97 0a23.842 23.842 0 0 0-16.97 7.03ZM1.958 24C1.958 11.29 12.26.989 24.968.989c12.71 0 23.012 10.302 23.012 23.01 0 12.71-10.303 23.012-23.011 23.012C12.26 47.01 1.958 36.708 1.958 24Z" clip-rule="evenodd"/><path fill="CurrentColor" fill-rule="evenodd" d="M24.972 38.698c-8.118 0-14.699-6.581-14.699-14.699 0-8.117 6.581-14.698 14.699-14.698 8.118 0 14.698 6.58 14.698 14.698s-6.58 14.699-14.698 14.699ZM11.219 23.999h13.753V10.246c-7.595 0-13.753 6.158-13.753 13.753Zm13.754 13.753V24h13.753c0 7.596-6.158 13.753-13.753 13.753ZM25.742 8.303l1.596-4.23v4.23h1.212V2.246h-1.822l-1.657 4.337h.018L23.43 2.246H21.61v6.057h1.213v-4.23l1.596 4.23h1.324Z" clip-rule="evenodd"/><path fill="CurrentColor" fill-rule="evenodd" d="m42.038 10.822-2.283 3.232 3.54-1.68.937 1.157-5.571 2.7-1.1-1.369 2.191-3.204-.013-.016-3.59 1.477-1.11-1.36 3.8-4.888.937 1.157-2.38 3.113 3.637-1.561 1.005 1.242ZM14.165 9.977c-.488-.474-1.24-.617-1.948-.178.135-.35.08-.707.008-.904-.286-.523-.397-.615-.619-.8l-.043-.036c-.812-.682-1.668-.1-2.28.63L6.329 12.21l4.646 3.899 3.117-3.715c.712-.848.822-1.69.074-2.417ZM9.93 9.56c.205-.245.67-.235.969.016.329.275.33.666.109.93l-1.755 2.09-1.099-.92L9.93 9.56Zm1.272 4.673 1.85-2.206c.246-.292.21-.749-.148-1.05-.316-.265-.786-.192-.997.059l-1.865 2.223 1.16.974Z" clip-rule="evenodd"/></svg>