<svg xmlns="http://www.w3.org/2000/svg" width="204" height="24" fill="none"><mask id="a" width="204" height="24" x="0" y="0" maskUnits="userSpaceOnUse" style="mask-type:alpha"><path fill="#fff" d="M.898 0h203.069v24H.898V0Z"/></mask><g mask="url(#a)"><path fill="CurrentColor" d="M183.976.394h4.477c.968 1.755 1.935 3.475 2.902 5.23.895 1.648 1.863 3.26 2.615 4.979.716-1.648 1.612-3.188 2.471-4.764 1.003-1.827 2.006-3.618 3.009-5.445h4.442v23.212h-3.904V12.967c0-2.364-.108-4.764.25-7.128-.394 1.146-.931 2.257-1.54 3.331a781.339 781.339 0 0 1-3.224 5.732h-3.08a114.9 114.9 0 0 1-2.006-3.583c-1.003-1.79-2.114-3.546-2.758-5.516.25 1.54.286 3.116.25 4.657v13.11h-3.94V.394h.036Zm-20.92 13.003V.394h3.941v14.364c0 .896 0 1.827.25 2.723.215.752.645 1.504 1.326 1.934.86.609 1.97.752 2.973.716 1.075 0 2.257-.215 3.081-.967.752-.68 1.074-1.683 1.182-2.65.071-.896.071-1.792.071-2.687V.394h3.905v13.54c0 1.433.071 2.902-.215 4.299-.287 1.504-1.003 3.009-2.185 4.012-1.397 1.218-3.296 1.612-5.087 1.755h-1.719c-1.433-.108-2.902-.358-4.155-1.11-1.433-.788-2.436-2.221-2.866-3.762-.645-1.826-.502-3.797-.502-5.731ZM146.041.394h13.577v3.725h-9.6v5.553h9.241v3.725h-9.241v6.448h9.6v3.725h-13.577V.394Zm-38.292 0h3.94v15.009c0 1.182.144 2.436.896 3.403.645.86 1.719 1.218 2.758 1.325 1.075.072 2.257.036 3.224-.465a3.202 3.202 0 0 0 1.612-1.935c.394-1.11.322-2.328.322-3.474V.394h3.94v14.687c0 1.146-.035 2.328-.286 3.438-.322 1.505-1.075 2.938-2.328 3.905-1.397 1.11-3.189 1.504-4.908 1.612h-1.755c-1.648-.108-3.367-.466-4.729-1.469-1.253-.895-2.041-2.292-2.4-3.725-.465-1.684-.358-3.439-.358-5.194.072-4.442.072-8.848.072-13.254Zm-24.18 0h4.478c1.147 2.042 2.257 4.084 3.403 6.09.753 1.325 1.505 2.65 2.114 4.047.25-.394.394-.824.609-1.218.716-1.432 1.54-2.83 2.292-4.226.86-1.577 1.756-3.117 2.615-4.693h4.478v23.212h-3.905V8.704c0-.93.108-1.898.215-2.83-.465 1.219-1.003 2.4-1.683 3.511a419.328 419.328 0 0 0-3.08 5.48h-3.081L88.8 9.17a21.454 21.454 0 0 1-1.254-2.579c-.108-.25-.18-.537-.322-.752.179 1.146.25 2.292.25 3.439V23.57h-3.868C83.57 15.87 83.57 8.131 83.57.394Zm-42.304 0h3.94v9.528c2.437-3.116 4.872-6.197 7.272-9.313.072-.108.144-.25.323-.215h4.8c-.036.107-.072.215-.144.287a2319.826 2319.826 0 0 1-8.74 10.853c3.009 3.905 6.018 7.845 9.063 11.75.071.107.107.179.143.322H52.98c-2.615-3.439-5.194-6.914-7.773-10.352-.036 3.438 0 6.877 0 10.352h-3.94V.394Zm-9.241 0h3.94v14.364c0 1.039.036 2.114-.143 3.117-.251 1.683-1.04 3.295-2.365 4.37-1.36 1.182-3.224 1.647-5.015 1.755h-1.647c-2.042-.108-4.084-.645-5.875-1.648v-4.047c.18.035.322.107.502.179 2.149 1.11 4.549 1.826 6.985 1.576.967-.108 1.97-.43 2.65-1.147.717-.752 1.003-1.826 1.003-2.83-.035-5.23-.035-10.46-.035-15.689Zm-11.105 0h3.94V14.83h-3.904c-.036-4.8-.036-9.636-.036-14.436ZM4.8 4.084v7.271h2.938c1.146-.071 2.4-.215 3.331-.967.788-.609 1.075-1.648 1.075-2.615.036-.931-.215-1.97-.931-2.615-.753-.68-1.756-.931-2.723-1.003-1.254-.107-2.471-.071-3.69-.071ZM.86.394h6.448c1.612-.036 3.296.107 4.836.68 1.433.502 2.686 1.54 3.331 2.938.788 1.72.86 3.69.573 5.552-.286 1.72-1.325 3.296-2.865 4.155 1.361 3.296 2.794 6.591 4.12 9.923h-4.263a2256.18 2256.18 0 0 1-3.44-8.776c-1.575.25-3.187.107-4.764.143v8.633H.86V.394ZM135.331 0h1.54c1.648.143 3.332.466 4.764 1.361V5.41c-.68-.358-1.325-.716-2.077-.967-1.54-.538-3.224-.788-4.836-.538-.752.144-1.504.359-2.078.896-1.074.967-1.074 2.937.108 3.833 1.039.824 2.364 1.146 3.582 1.612 1.684.573 3.403 1.218 4.585 2.579 1.182 1.325 1.505 3.188 1.325 4.871-.143 1.684-.931 3.296-2.22 4.37-1.505 1.254-3.439 1.827-5.374 1.97h-1.54c-1.863-.143-3.797-.572-5.409-1.575v-4.048c1.934 1.11 4.12 1.863 6.376 1.827 1.111-.036 2.257-.25 3.153-.967 1.074-.86 1.325-2.651.429-3.726-.68-.788-1.719-1.146-2.686-1.504-1.612-.573-3.296-1.039-4.729-2.006-1.11-.752-1.97-1.863-2.256-3.188-.358-1.469-.323-3.08.215-4.514.43-1.146 1.253-2.149 2.292-2.83C131.928.537 133.647.107 135.331 0Zm-68.31 0h1.54c1.648.143 3.331.501 4.764 1.361v4.012c-.394-.179-.788-.43-1.182-.609-1.72-.788-3.654-1.182-5.552-.931-.86.107-1.72.394-2.329 1.003-.68.68-.86 1.755-.573 2.65.251.789.967 1.326 1.684 1.648 2.042.967 4.334 1.326 6.197 2.651 1.11.752 1.934 1.899 2.22 3.188.43 1.863.251 3.976-.823 5.624-.86 1.361-2.257 2.293-3.725 2.794-.932.322-1.899.466-2.866.573h-1.54c-1.899-.143-3.797-.573-5.445-1.576V18.34c.537.251 1.038.573 1.576.788 1.683.717 3.51 1.182 5.337 1.003 1.003-.107 2.042-.358 2.758-1.074.824-.752 1.04-2.042.61-3.045-.323-.752-1.075-1.218-1.792-1.54-1.038-.466-2.113-.788-3.188-1.182-1.504-.538-3.08-1.254-4.083-2.58-1.04-1.29-1.29-3.044-1.147-4.656.144-1.505.788-2.938 1.899-3.976C62.9.752 65.015.143 67.02 0Z"/></g></svg>