<svg xmlns="http://www.w3.org/2000/svg" width="45" height="44" fill="none"><path fill="CurrentColor" d="M17.118.01c3.029-.09 6.112.46 8.845 1.798a16.048 16.048 0 0 1 5.832 4.817c1.7 2.261 2.78 4.954 3.261 7.73.518 3.025.427 6.17-.419 9.128a17.981 17.981 0 0 1-3.493 6.648 16.865 16.865 0 0 1-4.83 3.976c-2.608 1.437-5.593 2.143-8.568 2.135-2.945.012-5.907-.66-8.506-2.052a16.958 16.958 0 0 1-6.007-5.379C1.59 26.427.556 23.641.176 20.777c-.409-3.18-.11-6.463.94-9.498a17.148 17.148 0 0 1 2.768-5.04 16.04 16.04 0 0 1 4.54-3.895C11.054.827 14.09.082 17.118.01Zm-.221 5.205a9.717 9.717 0 0 0-5.664 2.358c-2.057 1.774-3.364 4.287-3.977 6.906a16.572 16.572 0 0 0 .456 9.018c.793 2.324 2.206 4.506 4.269 5.897 2.326 1.591 5.33 2 8.063 1.434 2.131-.436 4.072-1.653 5.437-3.336 1.78-2.177 2.701-4.948 2.974-7.716.31-3.143-.276-6.413-1.847-9.176-1.098-1.933-2.74-3.601-4.78-4.534-1.531-.716-3.25-.983-4.931-.85ZM35.002 29.491a10.421 10.421 0 0 1 4.466-1.1c1.248-.01 2.577.23 3.558 1.05.86.707 1.291 1.815 1.37 2.903.108 1.082-.155 2.172-.63 3.143-.688 1.404-1.711 2.61-2.777 3.742a64.56 64.56 0 0 1-2.355 2.332h6.267V44H34.648v-2.586c1.816-1.693 3.701-3.341 5.208-5.327.568-.764 1.102-1.58 1.355-2.507.16-.58.138-1.246-.215-1.756-.43-.64-1.219-.934-1.963-.982-1.362-.072-2.66.51-3.785 1.228-.085-.86-.166-1.72-.246-2.58Z"/></svg>