<svg xmlns="http://www.w3.org/2000/svg" width="49" height="48" fill="none"><path fill="CurrentColor" fill-rule="evenodd" d="M48.555 0v48h-.498l-1.341-.736-5.088-1.716-3.434-1.042-4.23-.859-4.29-.613-5.088-.245-4.905.245-4.475.613-4.23.859-3.432 1.042-5.089 1.716L1.114 48h-.56V0h48ZM37.153 13.854h-8.276v.859l.429 1.716.613 1.226 1.042 1.287 2.146 3.188.429.858h-1.288l-.858-.184-.858-.429-.43-1.103-.183-.613h-1.042v3.433h7.662l.43-.245.184-.614-.43-1.716-.613-1.287-1.103-1.472-2.084-3.187-.43-.858h1.043l1.042.184.858.674.43.858.244.613h1.043v-3.188Zm-9.564 0h-5.578v.859h.429l.429.184.245.674v6.804l-.245.43-.43.183-.428.245v.859h5.578v-1.104l-.674-.184-.43-.429v-7.05l.246-.428.858-.184v-.858Zm-6.62 0h-8.95v.859l.858.184.245.674v6.804l-.245.613-.859.245v.859h8.95v-3.433h-1.041l-.675 1.716-1.042.613-.613.245h-1.103v-3.861h.428l.675.429.184.674v.184h1.042v-3.433h-1.042v.245l-.184.613-1.103.245v-3.617h1.47l1.104.614.613 1.103v.613h1.288v-3.188Zm-9.809 0H2.64v3.188h1.286l.246-.613.184-.858.858-.675 1.103-.184h1.227l-.43.859-2.084 3.187-1.717 2.146-.674 1.655-.184 1.104v.429h8.521v-3.188h-.858l-.184.613-.674.858-.858.613-.858.245-1.043-.245.184-1.042.859-1.287 1.532-1.717 1.226-1.9.675-1.717.183-1.47Zm35.372 0h-8.337v.859l.429 1.716.674 1.226 1.042 1.287 2.146 3.188.43.858h-1.288l-.859-.184-.858-.429-.429-1.103-.184-.613h-1.104v3.433h7.663l.43-.245.245-.614-.43-1.716-.674-1.287-1.042-1.472-2.146-3.187-.612-.858h1.287l1.042.184.858.674.43.858.183.613h1.104v-3.188Z" clip-rule="evenodd"/></svg>