<svg xmlns="http://www.w3.org/2000/svg" width="122" height="36" fill="none"><path fill="CurrentColor" fill-rule="evenodd" d="M4.29 19.099h5.1c1.42 0 2.548.15 3.34.318 1.958.401 3.366 2.357 3.366 4.848 0 3.375-1.602 5.007-5.654 5.007H4.289V19.1Zm0-12.08H8.39c1.472 0 2.327.086 3.104.292 1.89.486 3.155 2.014 3.155 4.238 0 .783-.164 1.277-.448 1.934-.804 1.861-2.557 2.437-4.89 2.437H4.289V7.019ZM.554 3.84v28.637H8.39c4.312 0 5.433-.244 7.022-.849 2.907-1.135 4.68-4.081 4.68-7.071 0-2.162-.749-4.47-2.709-5.961-.874-.69-1.818-1.11-3.234-1.43 2.97-1.163 4.707-3.178 4.707-6.094 0-3.056-2.028-5.553-5.05-6.596-1.509-.522-2.948-.636-8.677-.636H.555Zm81.019-.052v28.635h3.811V18.729h12.018v13.694h3.892V3.788h-3.892v11.735H85.385V3.788h-3.811Zm-32.108-.584c-5.522 0-9.256 3.349-9.256 8.293 0 1.858.635 3.468 1.814 4.74 1.14 1.193 2.536 1.787 5.075 2.57l2.814.875c3.358 1.019 4.917 2.687 4.917 5.085 0 1.595-.641 2.898-1.945 3.895-1.147.876-2.235 1.219-4.34 1.219-2.943 0-5.212-.788-7.6-2.518l-1.656 2.968c2.944 1.833 5.792 2.675 9.256 2.675 2.609 0 4.515-.56 6.39-1.775 2.546-1.64 3.97-4.233 3.97-6.94 0-1.815-.716-3.758-1.892-5.112-1.177-1.355-2.509-2.127-5.023-2.914l-3.234-1.034c-3.293-1.064-4.549-2.282-4.549-4.423 0-2.756 1.99-4.477 5.444-4.477 2.797 0 4.551.93 6.888 2.463l1.657-2.754c-2.688-1.836-5.462-2.836-8.73-2.836ZM119.124 0l-13.648 36h2.289l13.647-36h-2.288Zm-44.57 0-13.65 36h2.288L76.84 0h-2.287ZM36.001 0 22.328 36h2.288L38.29 0h-2.288Z" clip-rule="evenodd"/></svg>