<svg xmlns="http://www.w3.org/2000/svg" width="105" height="25" fill="none"><path fill="CurrentColor" fill-rule="evenodd" d="M22.555 4.874V1.008h-22v3.866h9.02v14.268H.556v3.866h22v-3.866h-9.022V4.874h9.022ZM77.555 4.858v-3.85h-22v22h22v-3.851H59.502v-5.224h14.091v-3.85H59.502V4.857h18.053ZM38.152 19.213h-6.626V4.783h6.688c4.344.104 7.17 3.128 7.17 7.243 0 4.137-2.853 7.114-7.232 7.187ZM38.349 1H27.57v22h10.565c6.841-.077 11.554-4.86 11.554-11.032C49.69 5.861 45.075 1.171 38.35 1ZM92.433 19.888c-4.382 0-7.936-3.5-7.936-7.817 0-4.312 3.554-7.81 7.936-7.81s7.937 3.498 7.937 7.81c0 4.317-3.555 7.817-7.937 7.817Zm0-19.747c-6.694 0-12.12 5.342-12.12 11.93 0 6.592 5.426 11.935 12.12 11.935 6.694 0 12.122-5.343 12.122-11.934C104.555 5.482 99.127.14 92.433.14Z" clip-rule="evenodd"/></svg>