<svg xmlns="http://www.w3.org/2000/svg" width="136" height="36" fill="none"><path fill="CurrentColor" d="M12.313 19.3H7.798l2.402-7.846 2.113 7.847Zm-6.849 8.79 1.538-5.21h6.082l1.44 5.21h5.635L14.556 8.317a2.083 2.083 0 0 0-2.243-1.71H4.339v1.837h.675c.826 0 1.281.32 1.281.962a5.545 5.545 0 0 1-.416 1.744L.273 28.09h5.191ZM27.078 28.09V8.25a1.468 1.468 0 0 0-.402-1.184 1.504 1.504 0 0 0-1.175-.458h-4.868v1.837h.323c.834 0 1.183.352 1.183 1.197V28.09h4.939ZM35.802 28.09V8.25a1.47 1.47 0 0 0-.402-1.185 1.504 1.504 0 0 0-1.176-.457h-4.865v1.837h.325c.834 0 1.183.352 1.183 1.197V28.09h4.935ZM44.524 8.561c0-1.424-1.029-2.278-2.803-2.278-1.75 0-2.807.854-2.807 2.278s1.058 2.28 2.807 2.28c1.775 0 2.803-.856 2.803-2.28Zm0 19.53V13.474a1.478 1.478 0 0 0-.401-1.195 1.514 1.514 0 0 0-1.184-.464h-4.822v1.953h.285c.833 0 1.182.386 1.182 1.23V28.09h4.94ZM55.66 20.396v3.098a4.145 4.145 0 0 1-2.756 1.377c-.911 0-1.235-.446-1.235-1.631s.257-1.73 1.168-2.08a12.818 12.818 0 0 1 2.823-.764Zm-6.71-3.75a11.88 11.88 0 0 1 4.893-1.25c1.337 0 1.817.483 1.817 1.892v.352c-2.022.32-2.655.447-3.796.704-.638.147-1.26.351-1.861.61-1.994.799-2.94 2.369-2.94 4.774 0 3.047 1.294 4.522 3.987 4.522a7.019 7.019 0 0 0 2.654-.514 9.295 9.295 0 0 0 2.118-1.388v.225c-.058.415.083.833.382 1.13.298.297.72.44 1.14.385h4.627v-1.837h-.227c-.863 0-1.183-.352-1.183-1.31v-7.623c0-4.088-1.41-5.502-5.465-5.502-1.292.004-2.58.156-3.836.453-1.185.27-2.325.704-3.389 1.287l1.078 3.09ZM69.578 28.09V17.162a3.826 3.826 0 0 1 2.874-1.358c1.132 0 1.403.423 1.403 2.042v10.248h4.938v-11.07c0-2.568-.196-3.38-1.02-4.261a4.012 4.012 0 0 0-3.08-1.14c-1.993 0-3.403.642-5.307 2.473v-.667c0-1.063-.508-1.611-1.52-1.611h-4.694v1.952h.285c.833 0 1.182.387 1.182 1.231v13.09h4.94ZM94.003 24.806h-6.977l6.658-9.379v-3.286H83.147a1.53 1.53 0 0 0-1.32.421c-.347.344-.504.83-.424 1.308v2.91h1.976v-.291c0-.737.384-1.093 1.18-1.093h3.591l-6.747 9.468v3.226h12.602l-.002-3.284ZM120.744 27.083V9.166c0-1.43-.467-1.906-1.866-1.906H114.8v1.952h.669a.631.631 0 0 1 .428.224c.196.268.282.598.241.926v16.721h4.606Zm2.304 0h4.607V13.52c0-1.368-.503-1.911-1.892-1.911h-2.715v15.475Zm-8.886 0V11.608h-2.726c-1.346 0-1.882.543-1.882 1.91v13.565h4.608Zm18.1-9.098c0 8.11-5.852 14.013-13.821 14.013-8.007 0-13.822-5.9-13.822-14.013 0-8.081 5.815-13.98 13.822-13.98 7.97 0 13.823 5.899 13.823 13.98h-.002Zm3.292 0c0-9.871-7.308-17.235-17.099-17.235-9.79 0-17.127 7.364-17.127 17.235 0 9.901 7.333 17.265 17.127 17.265 9.794 0 17.098-7.364 17.098-17.265h.001Z"/></svg>