<svg xmlns="http://www.w3.org/2000/svg" width="140" height="34" fill="none"><path fill="CurrentColor" d="M115.79 18.187a.955.955 0 0 0 1.357 0 .952.952 0 0 0 .282-.68.955.955 0 0 0-.282-.679.953.953 0 0 0-.678-.28.96.96 0 0 0-.679 1.64Zm4.844-4.846a1.247 1.247 0 1 0 1.765-1.766 1.248 1.248 0 1 0-1.765 1.766Zm-.006 10.095a1.247 1.247 0 1 0 1.765-1.766 1.248 1.248 0 1 0-1.765 1.766Zm4.789-14.881c.317.317.732.475 1.147.475a1.618 1.618 0 0 0 1.623-1.623 1.619 1.619 0 0 0-1.623-1.624c-.415 0-.83.158-1.147.476a1.616 1.616 0 0 0-.476 1.148c0 .415.158.83.476 1.148Zm-.007 10.095a1.618 1.618 0 0 0 2.295 0c.317-.317.475-.732.475-1.148a1.619 1.619 0 0 0-1.622-1.623 1.618 1.618 0 0 0-1.623 1.623c0 .416.158.831.475 1.148Zm-.005 10.096a1.618 1.618 0 0 0 2.295 0c.317-.317.475-.733.475-1.148a1.619 1.619 0 0 0-1.623-1.623 1.619 1.619 0 0 0-1.622 1.623c0 .415.158.83.475 1.148Zm4.709-14.802a2.1 2.1 0 0 0 1.491.618 2.1 2.1 0 0 0 1.493-.618c.412-.412.618-.952.618-1.492s-.206-1.08-.619-1.493a2.102 2.102 0 0 0-1.492-.618 2.106 2.106 0 0 0-2.109 2.11c0 .541.206 1.082.618 1.493Zm-.005 10.096c.412.412.952.618 1.492.618a2.105 2.105 0 0 0 2.11-2.11c0-.54-.206-1.08-.618-1.493a2.105 2.105 0 0 0-2.984 0 2.106 2.106 0 0 0-.618 1.492c0 .541.206 1.08.618 1.493Zm4.601-4.603a2.732 2.732 0 0 0 1.939.804c.702 0 1.403-.268 1.939-.804a2.736 2.736 0 0 0 .804-1.94c0-.703-.268-1.404-.804-1.94a2.732 2.732 0 0 0-1.939-.805 2.73 2.73 0 0 0-1.939.805 2.734 2.734 0 0 0-.804 1.94c0 .702.268 1.404.804 1.94Zm-30.101-6.923v-2.371c1.336.425 2.53.637 3.579.637 1.433 0 2.149-.378 2.149-1.135a.945.945 0 0 0-.304-.712c-.214-.205-.764-.486-1.649-.848-1.573-.644-2.605-1.198-3.087-1.66-.62-.6-.931-1.366-.931-2.298 0-1.18.45-2.082 1.357-2.703.891-.616 2.056-.924 3.492-.924.806 0 1.852.129 3.134.386l.296.051v2.28c-1.114-.445-2.15-.667-3.111-.667-1.339 0-2.008.369-2.008 1.11 0 .277.135.502.405.678.215.135.84.434 1.872.899 1.453.65 2.426 1.214 2.915 1.695.577.57.865 1.308.865 2.214 0 1.3-.563 2.291-1.686 2.975-.921.553-2.111.83-3.567.83-1.232 0-2.473-.146-3.721-.437ZM99.871.708v8.033L95.753.708H91.87v12h2.36v-8.14l4.229 8.14h3.772v-12h-2.36Zm-18.936 0v12h8.73v-2.293h-5.501V7.567h4.668V5.588h-4.668V2.88h5.362V.708h-8.59Zm-7.197 0-3.094 7.667L67.627.708h-4.343v12h2.36V4.212l3.449 8.617h2.077l3.517-8.617v8.496h3.176v-12h-4.125Zm-21.371 0v12h8.73v-2.293h-5.502V7.567h4.668V5.588h-4.668V2.88h5.363V.708h-8.591Zm-6.422 12h3.35v-12h-3.35v12Zm-10.866-.194v-2.371c1.348.425 2.54.637 3.58.637 1.432 0 2.148-.378 2.148-1.135a.932.932 0 0 0-.313-.712c-.215-.205-.76-.486-1.641-.848-1.578-.65-2.608-1.203-3.087-1.66-.619-.606-.93-1.368-.93-2.29 0-1.186.453-2.09 1.357-2.71C37.085.807 38.249.5 39.683.5c.791 0 1.936.145 3.432.437v2.28c-1.113-.445-2.148-.667-3.102-.667-1.346 0-2.018.369-2.018 1.11 0 .277.136.502.407.678.226.14.847.44 1.863.899 1.463.65 2.439 1.214 2.923 1.695.576.57.865 1.308.865 2.214 0 1.3-.565 2.291-1.696 2.975-.914.553-2.101.83-3.558.83-1.231 0-2.471-.146-3.72-.437Zm9.954 12.004h2.708v-2.255h-2.708v-3.268h-2.874v3.269h-1.594v2.255h1.594v5.107c0 1.739.165 3.434 3.143 3.434.91 0 2.004-.268 2.626-.661l-.622-1.925c-.453.186-.888.332-1.261.332-.765 0-1.012-.456-1.012-1.593v-4.695Zm67.828-1.653.008-.025c-.915-.599-2.114-.96-3.423-.892-2.124.111-3.794 1.378-3.678 3.567.115 2.192 1.711 2.708 3.281 3.081.903.222 1.657.391 1.699 1.197.041.785-.501 1.124-1.264 1.165-.934.048-2.116-.368-2.878-.76l-.857 1.972c.604.404 2.159.98 3.99.884 2.392-.125 3.958-1.385 3.836-3.721-.113-2.149-1.831-2.618-3.362-3.015-.944-.24-1.639-.474-1.682-1.279-.035-.683.509-.98 1.19-1.016.706-.037 1.466.273 2.272.838l.868-1.996Zm-11.644 3.37c.042-1.095.703-1.8 1.737-1.8a3.14 3.14 0 0 1 1.467.373l.517-2.482c-.496-.27-1.136-.373-1.716-.373-.971 0-1.984.579-2.48 1.8l-.269-1.49h-2.336l.207 1.82v8.666h2.873v-6.515Zm-31.44 6.515v-6.722c0-.993.703-1.861 1.797-1.861 1.097 0 1.282.847 1.282 1.985v6.598h2.873v-7.157c0-2.481-1.24-3.64-3.286-3.64-1.385 0-2.418.58-3.121 1.552l-.207-1.242h-2.399l.187 1.945v8.542h2.873Zm-8.423-13.763c0 .436.152.805.423 1.067.271.26.66.412 1.137.412.465 0 .86-.152 1.139-.413.278-.26.44-.63.44-1.066a1.44 1.44 0 0 0-.44-1.044 1.617 1.617 0 0 0-1.139-.435c-.466 0-.856.167-1.129.435a1.45 1.45 0 0 0-.43 1.044Zm.132 13.763h2.873V22.263h-2.873V32.75Zm-8.495 0v-6.763c0-.973.703-1.82 1.757-1.82 1.096 0 1.323.827 1.323 1.902v6.68h2.873v-7.113c0-2.462-1.178-3.683-3.349-3.683-1.013 0-1.942.372-2.604 1.075v-4.032h-2.873V32.75h2.873ZM35.07 19.017v10.61c0 1.737.165 3.433 3.142 3.433.91 0 2.005-.268 2.625-.662l-.62-1.924c-.455.187-.889.332-1.26.332-.766 0-1.014-.456-1.014-1.593V19.016H35.07ZM32.671 32.75l-.207-2.088v-7.944c-1.57-.578-3.101-.765-3.804-.765-3.657 0-5.477 2.379-5.477 6.02 0 2.79 1.013 5.066 4.01 5.066 1.117 0 2.15-.413 2.77-1.365l.104.022.144 1.054h2.46Zm-3.06-3.35c0 .765-.619 1.55-1.694 1.55-1.53 0-1.882-1.468-1.882-3.143 0-2.028.58-3.723 2.275-3.723.537 0 1.032.103 1.301.227v5.088ZM7.782 18.995v5.48H3.565v-5.48H.61V32.75h2.956v-5.688h4.217v5.688h2.957V18.996H7.782Zm13.747 5.977c0-1.964-1.344-3.02-3.432-3.02-3.39 0-5.146 2.773-5.146 5.812 0 3.103 1.405 5.295 4.919 5.295 2.088 0 3.535-.952 3.783-1.158l-.827-1.923c-.578.392-1.467.889-2.583.889-1.572 0-2.234-1.056-2.378-2.048 2.501-.103 5.664-.725 5.664-3.847Zm-2.522.022c0 1.426-1.923 1.757-3.266 1.799.061-1.428.806-2.814 2.212-2.814.64 0 1.054.393 1.054 1.015Zm77.105-.022c0-1.964-1.344-3.02-3.432-3.02-3.39 0-5.147 2.773-5.147 5.812 0 3.103 1.406 5.295 4.92 5.295 2.088 0 3.535-.952 3.782-1.158l-.827-1.923c-.578.392-1.467.889-2.583.889-1.571 0-2.232-1.056-2.377-2.048 2.502-.103 5.664-.725 5.664-3.847Zm-2.522.022c0 1.426-1.923 1.757-3.266 1.799.06-1.428.806-2.814 2.212-2.814.64 0 1.054.393 1.054 1.015Zm-7.504-.022c0-1.964-1.344-3.02-3.432-3.02-3.39 0-5.147 2.773-5.147 5.812 0 3.103 1.406 5.295 4.92 5.295 2.088 0 3.535-.952 3.783-1.158l-.827-1.923c-.579.392-1.467.889-2.584.889-1.571 0-2.233-1.056-2.377-2.048 2.502-.103 5.664-.725 5.664-3.847Zm-2.522.022c0 1.426-1.923 1.757-3.266 1.799.061-1.428.806-2.814 2.212-2.814.64 0 1.054.393 1.054 1.015Z"/></svg>